<?xml version="1.0" encoding="utf-8"?>
<!-- Generator: Adobe Illustrator 22.0.1, SVG Export Plug-In . SVG Version: 6.00 Build 0)  -->
<svg version="1.1" id="logotipo" xmlns="http://www.w3.org/2000/svg" xmlns:xlink="http://www.w3.org/1999/xlink" x="0px" y="0px"
	 viewBox="0 0 1702.4 1663" style="enable-background:new 0 0 1702.4 1663;" xml:space="preserve">
<style type="text/css">
	.st0{fill:#DB4626;}
</style>
<g id="tj3k">
	<path id="j" class="st0" d="M1399.7,325.8c-9.7-1.7-19.8-3.8-29.5-3.1c-27.3,2-53.4,8.5-77.9,21.7c-9.5,5.1-20.3,7.9-30.5,11.7
		c-0.6-1.3-1.3-2.6-1.9-3.9c2-2.2,3.6-5.1,6-6.5c17-10.2,34.2-20.3,51.4-30.1c9.5-5.4,19.1-11,29.1-15.2c8.7-3.6,18.4-4.9,27.3-8.3
		c4.4-1.6,11.5-6.2,11.1-8.2c-1.2-5.7-4.5-11.9-8.9-15.8c-6.7-6.1-13.4-7.1-16.6,4.7c-0.8,2.8-6.1,4.9-9.7,6.1
		c-13.5,4.5-27.7,7.2-40.7,12.9c-17.7,7.7-34.4,17.8-51.9,26.1c-2.2,1.1-9-1.6-9.4-3.5c-4.9-23-9.2-46.2-13.3-69.4
		c-2.2-12.4-2.3-25.3-6.2-37.1c-2.5-7.5-5.6-20.6-18-16.4c-13.4,4.6-18.1-2-22.4-11.9c-0.8-1.8-1.8-3.6-3-5.2
		c-12.2-15.3-25.5-14.6-31.7,3.1c-3.5,9.9-1.8,21.5-3,32.3c-0.6,5.1-1,11.6-4.2,14.8c-5.7,5.9-13.2,10.3-20.4,14.5
		c-9.7,5.8-18.1,11.8-17.8,25c0.1,4-2,8.7-4.4,12.1c-11.2,15.5-9.2,31.7,5.9,43.3c3.3,2.6,6.4,5.5,7.5,6.5
		c-12.5,18.4-24.5,35.1-35.2,52.5c-4,6.5-5.7,13.1-15.4,13.9c-7.7,0.6-15.6,3.7-22.4,7.6c-13.9,8-33.9,8.4-38.3,30.5
		c-4.5-1.3-9.2-1.8-13.1-3.9c-11.5-6.2-16.1-4.1-19,9c-0.8,3.5-2.5,8.4-5.1,9.6c-5.6,2.5-11.5,4.7-8.9,11.5
		c2.2,5.8,7,10.8,11.3,15.6c4,4.4,8.8,8.1,13.5,11.8c5.5,4.3,11.5,12.2,16.8,11.8c17-1.1,34.3-3.5,50.5-8.6
		c29.4-9.2,58.1-20.8,87.1-31.2c5.9-2.1,12-3.5,20.3-5.9c1.6,9.1,2.9,16.8,4.3,24.6c4.6-0.7,6.9,0.1,9.2,10
		c6.6,27.8,14.9,55.5,10.7,84.8c-2.3,15.7-5.2,31.7-4.7,47.4c0.7,20.6,5.5,41.1,6.6,61.8c1.5,28.3-12,49.8-34.8,65.6
		c-5.4,3.7-12.1,5.4-21.1,9.3c0-0.6,0.1-1.2,0.1-1.8c-1.6,0.6-3.6,0.4-5-0.6c0,0.2,0,0.4,0,0.5c-10-0.8-20.5,0.8-28.7-2.8
		c-31.5-13.8-64.1-26.4-92.6-45c-29.5-19.2-61-25.8-94.2-29.7c-13.3-1.6-19.1-9.8-14.1-22.3c2.2-5.5,4.9-11.1,5.7-16.9
		c1.5-11.8-5.1-16.6-15.9-12c-10.8,4.6-21.7,9.3-32,15c-8.9,4.9-17.2,6.6-27.4,3.6c-15.7-4.5-24.9,4.5-19.5,20.1
		c5.4,15.5,15.1,28.7,29.6,37.9c3.9,2.5,6.7,6.8,10.1,10.2c-3.7,3-7,6.9-11.2,8.8c-10.5,4.7-20.2,21.6-18.9,34.4
		c1.1,10.8,10.7,18.6,24.4,21c27.5,4.7,55,9.4,82.4,14.9c20.7,4.1,22.4,4,34.2-13.6c5.2,3.3,10.3,6.9,15.6,9.9
		c13.6,7.8,26.7,16.9,41.1,22.7c13.9,5.6,29.4,7.4,44,11.4c11.8,3.3,23.7,6.5,34.8,11.4c11.1,4.8,20.9,12.8,32,17.4
		c23.2,9.6,46.8,18.1,70.3,26.7c25.1,9.2,50.3,17.9,75.4,26.8c10.3,3.7,21.5,7.7,30.8-0.2c9.1-7.7,6.8-19.3,4-29.2
		c-2.8-9.9-8.7-18.9-11-28.8c-6.6-29.5-12.7-59.1-17.7-89c-1.9-11.3-4.5-25.9,0.8-34.1c10.7-16.7,3.3-31.6,2-47.3
		c-0.7-9.1-3.2-18.1-3.8-27.2c-3.8-55.4-7.6-110.7-10.7-166.1c-1.1-20.1-0.2-40.3-0.2-60.7h37.9c-0.9-6.3-1.6-11.7-2.6-18.4
		c21-2,40.3,3.1,59.7,6.7c4.7,0.9,12.5,1.7,14.2-0.7c5.1-7.4,11.8-17.1,10.4-24.4c-1.5-7.5-10.6-15.6-18.4-19.5
		c-18.4-9.2-36.7-0.4-54.8,3.8c-8.5,2-16.9,4.1-25.3,6.2c5.7-5.2,11.8-10.2,18.4-11c31.4-3.9,62-15.6,94.5-11.2
		c4.1,0.6,12.7-3.3,12.6-4.4C1408.9,338.4,1411.4,327.8,1399.7,325.8z M989.5,468.1c17.2-1.7,31.6-3.1,47.6-4.6
		C1024,474.4,999.5,477.9,989.5,468.1z M1155.9,373.1c-20.3,4.6-40.7,8.7-61.1,12.9c-1.1-1.6-2.2-3.2-3.3-4.8
		c5.5-8.3,10.4-17,16.5-24.8c3.8-4.9,8.9-9.3,14.2-12.5c5.3-3.1,13.2-7.6,17.4-5.7c11.1,5,19.5,14.1,19.5,27.7
		C1159.2,368.5,1157.5,372.8,1155.9,373.1z"/>
	<path id="t" class="st0" d="M420.3,348.3c0.9-6.7-0.2-15.9,13.6-12.2c-0.3-1.1-0.7-2.2-1-3.4c-14.6-8.6-29.1-17.4-43.8-25.8
		c-18.6-10.7-37.2-21.3-56.1-31.5c-15-8.1-30-16.2-45.6-23c-10.4-4.6-18.5-10.5-22.9-21.3c-3.6-8.5-2.5-17.3,4.5-21.6
		c6-3.6,16.1-5.5,22-2.9c12.1,5.5,22.3,15.1,33.8,22.1c22.9,14.1,46,28,69.2,41.5c22.3,13,45,25.2,67.4,38
		c24.4,14,48.8,28.2,73,42.5c7.2,4.2,13.7,10,21.2,13.4c3.5,1.6,9.6,0.4,13.2-1.7c7.7-4.6,15.2-9.9,21.6-16.3c3-3,4.4-9,4.3-13.5
		c-0.4-12.7-1.9-25.3-3-38c-1.3-14.3,7.7-21.8,18.5-28.1c2.4-1.4,6.7-1.4,7.5-3.2c2.3-5.2,3.2-11,4.6-16.5
		c-4.6-0.2-10.3-2.2-13.6-0.2c-5.6,3.4-11.6,8.5-13.9,14.3c-8.4,21.4-15.6,43.2-22.7,65.1c-1.5,4.6-0.9,9.8-3.6,15.8
		c-1.4-3-4.4-6.5-3.9-9.1c6.4-30.2,9.1-62,26.1-88.5c6-9.3,19.1-15.6,30.3-19.2c4.7-1.5,15.3,6.4,18.6,12.6c3.6,6.6,3.6,16.5,2,24.3
		c-2.9,13.6,0,24.8,9,37c1.5-5.8,2.6-10.2,3.9-14.6c2.1-7.2,6.4-14.1,14.2-9.6c5.4,3.1,10.6,10.6,11.3,16.6c1.1,10.8-4.5,20.2-10,30
		c-4.3,7.6-1.2,19.8-0.2,29.8c2.5,24.2,6.5,48.2,8.3,72.4c1.5,20.6,2.1,21.4,21.1,29.5c12.7,5.3,23.9,14.3,36.4,20.3
		c40.6,19.4,81.4,38.4,122.3,57.1c14.4,6.6,27.8,14.2,36.9,27.6c16,23.6,4.3,42.4-15.4,53.8c-13.3,7.6-27.3,6.2-41.6,0.8
		c-6.7-2.5-14.8-3.6-21.9-2.7c-13.9,1.8-24.5-3.8-35.8-10.5c-26.5-15.9-53.6-30.9-80.5-46.3c-6.6-3.8-11-1.2-12.7,5.2
		c-4.8,17.7-9.1,35.5-13.5,53.2c-1.3,5.4-3.3,10.9-3.4,16.4c-0.2,13.7-1.1,27.7,1,41.1c4.9,31.8,11.4,63.4,17.3,95
		c2.1,11.4,4.2,22.8,6.8,34.1c3.7,16.3,8,32.5,11.7,48.7c2,8.7,3.7,18-5,24.2c-6.8,4.8-26.1,0.3-32.5-6.4c-2.6-2.7-5.6-4.8-8.5-7.2
		c-2.3,3.9-4.7,7.8-7,11.8c-0.2,0.3-0.2,0.8-0.3,1.2c-1.9,7.2,2,19.4-8.9,19.2c-9.1-0.1-18.4-6.4-26.9-11.1
		c-10.2-5.7-14.9-15-17.3-26.7c-1.1-5.2-9.3-8.6-12.3-13.9c-2.8-4.9-3.6-11.3-4-17.2c-0.6-10.6-0.2-21.2-0.2-31.8
		c-1.4-0.4-2.7-0.9-4.1-1.3c-2.8,3.4-6,6.6-8.3,10.3c-12.6,20.8-25.7,41.4-36.9,63c-6.1,11.8-8.5,25.5-13.2,38.1
		c-1.6,4.2-5.3,10.4-8.1,10.5c-4.5,0.1-11.3-3-13.5-6.8c-7.3-12.9-7.1-26.9,0.3-39.9c16-28,33.6-55.2,48.7-83.7
		c17.2-32.4,33.7-65.2,47.8-99c5.9-14.2,7.1-31.2,6.9-46.9c-0.3-28.6-1.9-57.4-5.4-85.8c-2-16-7.5-32-13.9-46.9
		c-7.1-16.5-25.2-18.3-39.7-23.2c-41.8-14.1-83.8-27.5-126.2-39.8c-17.5-5.1-36.1-6.4-54-10.1c-33.8-6.9-67.5-14.1-101.1-21.8
		c-8.9-2-17.4-5.9-25.8-9.5c-3.6-1.5-7.4-3.9-9.4-7.1c-1.8-3-2.2-7.6-1.5-11.2c0.3-1.3,5.8-2.8,8.4-2.1c11,2.9,21.7,7,32.7,10
		c23.4,6.4,46.7,13.7,70.6,18.1c15,2.7,30.9,0.8,46.4,0.7c2.1,0,4.1-1.6,9.2-3.8c-8.3-5.2-14-10.2-20.7-12.7
		c-15.2-5.7-30.7-10.8-46.4-14.9c-17-4.4-26.1-17.3-20.1-33.8c3.9-10.6-1-15.4-8.5-19c-23.3-11.1-47.2-21.2-70.4-32.6
		c-12.1-5.9-23.7-13.2-34.4-21.3c-3.7-2.8-4.1-10.1-6-15.4c5.3-0.2,11.4-2.2,15.8-0.4c14.6,6.2,28.3,14.2,42.8,20.7
		c18.5,8.3,37.5,15.5,56,23.6c14.8,6.5,29.2,13.7,43.9,20.6c23.8,11.1,47.6,22.1,71.4,33.1C418,349.2,418.9,348.7,420.3,348.3z
		 M655.5,709c-13.7,15.6-10.2,59.6,5.2,75.4C666,759.8,662.5,735.7,655.5,709z M487.4,365.1c-17-10.6-32.7-20.4-48.5-30.2
		c-2.2,8.2-3.6,13.3-5.4,20.1c6.8,10.5,17.4,3.6,27.2,1.7C467.8,375,473.4,377.2,487.4,365.1z"/>
	<path id="_x33_" class="st0" d="M603.3,1071.8c-23.8,4.5-46.6,9.4-69.7,13.1c-21.2,3.4-40.3,16.1-62,14.9
		c-5.8,4-11.5,7.9-19.1,13.1c-1.1-13,17.5-10.3,11.1-22.4c28.2-7.4,57-13.1,84.5-22.7c22.8-7.9,45.3-14.7,69.4-16.1
		c6-0.4,13.3-1,13.4-12c-26.1,1.4-51.9,2.9-77.6,4.1c-43.8,2.1-87.7,4-131.5,6.1c-6.2,0.3-12.4,1.9-18.7,2.7
		c-14.2,1.6-28.4,3.3-42.7,4.4c-6.3,0.5-14.9,2.8-11.5-9.8c0.6-2.3-3.9-6.1-6.8-10.3c15.3-2.1,29.6-4,43.5-5.8
		c2.2-19,3.5-20.3,21.1-22.7c-5.5-3.6-10.8-6-14.7-9.9c-3-2.9-6.8-9.4-5.5-11.3c2.7-4.3,8.5-9.8,12.9-9.6
		c28.7,1.3,57.3,4.2,85.9,6.3c28.5,2.1,56.9,4.3,85.4,5.9c43.5,2.4,87,4.7,130.5,6.2c15.8,0.6,31.7-1.8,47.6-1.5
		c14.8,0.3,29.5-5.6,44.6,1.4c7.7,3.6,9.9,8.9,10.4,15.3c0.1,1.5-7.9,5.2-12.1,5.2c-9.7,0.1-13,4.9-12.1,13.4
		c0.6,5.9,1.4,12.1,3.8,17.4c10.2,22.5-6,53.3-32.7,56.9c-5,0.7-13.3,4.7-13.4,7.4c-0.2,5,3.6,11.1,7.4,15.2
		c24.7,26.8,38.7,57.2,33.4,94.5c-0.2,1.2-0.4,2.5-0.2,3.6c4.9,22.9-7.8,40.9-17.3,59.5c-9.5,18.4-19.8,36.5-30.1,54.4
		c-13,22.5-32,37.8-55.3,49.5c-23.8,11.9-48.2,21.2-74,26.7c-20.5,4.3-41.5,6.9-62.2,10.6c-28.1,4.9-56,10.9-84.3,14.9
		c-26.6,3.8-53.3,10.9-80.5,4.2c-9.4-2.3-16.6-7-19.1-17.6c-0.8-3.3-4.3-7.4-7.5-8.6c-14.4-5.5-29-10.6-43.7-15
		c-10.6-3.2-18.9-16.6-17.7-30.3c1.5-15.9,5.3-19.2,20.5-20.8c5.3-0.5,10.3-3.7,15.5-5.4c1.7-0.6,3.7-0.4,5.6-0.7
		c8.3-1.6,18.9-0.6,24.3-5.4c15.6-13.9,32.5-12.5,50.4-9.1c1.1,0.2,2.3,0.2,3.5,0.3c0.5-2.1,1-4,1.6-6.1c1.8,2.2,3,5.4,5.1,6
		c13.3,4.2,26.6,8.7,40.3,11.5c24.8,5.1,49.7,10.1,74.9,13.1c26,3.1,52.6,5.3,77.7-5c12-4.9,23.5-11.8,34.3-19.2
		c21.3-14.6,37.8-33.6,49.5-56.8c9.3-18.3,8.8-33.8-5.9-48.1c-13.6-13.2-29.4-24.2-45.1-35c-6.4-4.4-14.1-3.4-20.8,2.9
		c-3,2.8-9.6,5.2-12.6,3.8c-11-5.4-20.2-1.4-27.7,4.9c-17.2,14.6-37.9,18.8-58.7,24.9c-17.2,5-33.3,14.4-48.9,23.5
		c-13.3,7.8-24.4,19.5-37.9,26.6c-13.6,7.2-29.5,6.2-42.2-2.8c-12.5-8.9-23.7-19.9-34.4-31c-6.7-7-4.2-25.8,5.8-33.9
		c12.8-10.3,26.9-20.3,42-26.5c37.1-15.2,71.2-35.3,104.7-56.9c5.3-3.4,10.5-7.2,16.3-9.4c10.7-4.1,19.5-10,28.5-17.6
		c8.4-7.2,21.6-8.9,33-12.2C593.7,1086.1,601.7,1083.9,603.3,1071.8z"/>
	<path id="k" class="st0" d="M1290.7,978.9c13.5-4.5,26.8-10.1,40.6-13.3c15-3.5,30.5-5.4,45.9-6.7c4-0.3,11.9,4.4,11.8,6.8
		c0,4.6-3.2,11.3-7.1,13.4c-9,4.8-19.1,7.7-29,10.9c-18.1,5.8-36.4,11.2-54.6,16.8c-1.9,0.6-3.7,1.7-5.3,2.8
		c-13.7,9.9-27.4,19.9-36.7,26.7c7.1-1.4,20.2-4.2,33.4-6.2c3.2-0.5,6.7,1.5,10.1,2.4c-1.6,2.9-2.5,6.6-4.9,8.4
		c-42.9,32-92.6,42.3-144.6,46.6c-16.1,1.3-32,5.8-47.9,9c-20.6,4-41.7,6.3-59.7,18.8c-4.9,3.4-10,6.6-15,10
		c4.8,6.1,8.3,15.2,14.6,17.8c13.7,5.7,28.6,9.3,43.4,11.8c35.4,6,70.9,11.5,106.5,16.1c27.3,3.6,54.9,4.6,82.1,8.7
		c21.2,3.2,42.2,8.6,62.7,14.8c14.3,4.3,20.9,17.9,16.8,32.5c-1.5,5.2-6.7,10.8-11.7,13c-4.8,2.1-12.1,1.4-17-0.8
		c-11.9-5.4-23.7-7.7-36.8-6.4c-11.4,1.1-23-0.3-34.6-0.8c-3.3-0.1-6.6-0.7-9.8-1.1c-0.3,1.1-0.6,2.1-0.8,3.2
		c22.5,8.4,45,16.7,67.4,25.3c14.5,5.6,18.4,14.5,11.7,28.4c-4.8,9.9-3.7,16.8,5.2,23.8c9.4,7.4,12.1,33.8,5.5,43.8
		c-4.3,6.5-21.3,10.3-26.4,4.9c-11.2-12-20.5-25.9-32.3-37.2c-8-7.6-18.8-12.8-28.9-17.7c-18.7-9.1-39.9-6.9-59.2-11.7
		c-29.2-7.2-57-20.3-85.4-30.8c-25.5-9.4-51.3-18.2-76.6-28.1c-17.3-6.8-33.9-15.3-51-22.6c-3.7-1.6-8.1-1.4-12.2-2
		c-0.3,1.1-0.7,2.1-1,3.2c-2.9-4-5.2-9-9-11.8c-4.7-3.5-11.5-8.4-15.3,1.3c-7.5,18.7-15.9,37.2-21.4,56.5
		c-5.7,20.2-8.3,41.3-12.4,61.9c-0.7,3.5-1.6,7-2.7,10.4c-3.2,9.7-9.2,12.3-18.4,8.3c-9.3-4.1-19.5,0.9-21.6,10.7
		c-1.5,6.6-3.3,13.2-4.4,19.8c-1.1,6.6-1.3,13.4-2,19.9c-9.8,2.4-14.6-2.3-14.8-10c-0.7-31.8-2.8-63.8-0.4-95.4
		c2.1-27.2,10-54,14.9-81.1c0.8-4.6-0.3-9.5-0.1-14.2c0.8-14.5,1.8-29.1,2.9-43.6c0.1-1.1,0.8-2.6,1.6-3.1
		c18.2-9.1,16.1-27.6,17.3-42.6c3-39.4,3.8-79,4.6-118.5c0.2-13.2,4.4-21.2,19.2-22.4c-0.8-4.2-2.8-8.1-1.8-10.9
		c1.7-5,5.1-9.5,7.8-14.2c3.7,2.2,9.6,3.6,10.6,6.7c3,9.7,5.1,19.9,5.7,30.1c1.1,16.7,1.3,33.4,0.9,50.1
		c-0.3,14.3-2.1,28.5-2.9,42.8c-0.4,6.6-0.1,13.2,1.9,19.9c9.8-50.7,8.2-102.5,16.5-153.7c0.7,3.6,1.4,7.1,2.3,12.1
		c1.2-3.5,2-5.9,4.2-12.1c4.3,8.9,7.3,15.1,11,22.7c1.2-5,1.4-9.1,3.1-12.4c2.3-4.4,5.8-8.2,8.7-12.2c4.3,4.1,12,7.9,12.3,12.3
		c1.2,16.2,1.3,32.7-0.8,48.7c-2.6,19.7-8.1,39.1-12.1,58.6c-1.5,7.5-2.8,15.4,8.1,17.9c4.9-6.5,9.6-12.9,14.4-19.2
		c1.4,0.9,2.8,1.7,4.2,2.6c-4,6.9-7.9,13.9-11.9,20.8c0.6,0.9,1.1,1.8,1.7,2.7c3.3-1.6,6.8-2.7,9.7-4.8
		c13.9-9.7,26.9-21.1,41.7-29.2c19.5-10.7,40.7-18.2,60.5-28.5c12.3-6.4,23.7-14.8,34.4-23.7c4.1-3.4,6.2-10.4,7.3-16.1
		c2.8-15.4,8.2-27.2,24.9-33.2c11.8-4.2,21.6-13.8,32.9-19.9c4.1-2.2,10.7-3.6,14.6-1.9c14.5,6.2,31.6,8.2,38.7,26.8
		c5,13,15,21.8,31.1,14.5c2.4-1.1,5.6-0.6,8.3-0.4c10.4,0.9,13.1,6.3,7.6,15.4c-1.2,2-2.8,3.7-4.3,5.5
		C1289.7,977.7,1290.2,978.3,1290.7,978.9z"/>
	<path id="_x33_small" class="st0" d="M406.9,1101.9c6.6-0.9,18.6-3.6,19-2.5c3.7,11.7,23.9-4.7,22.8,13.2
		c-24,7.5-47.4,14.9-71.8,22.6c-0.5-5.2-0.8-8.5-1.2-12.9c18.4,0.4,35.8-1.5,51.1-11.7c-6.9-1.6-13.3-3-19.7-4.5
		C407,1104.7,406.9,1103.3,406.9,1101.9z"/>
</g>
</svg>
